<svg width="33" height="33" viewBox="0 0 33 33" fill="none" xmlns="http://www.w3.org/2000/svg">
<path d="M6.875 6.875H26.125V4.125H6.875V6.875ZM6.875 9.05546V6.875H4.125V9.05546H6.875ZM12.9445 15.125L6.875 9.05546L4.93046 11L11 17.0695L12.9445 15.125ZM11 17.0695V26.5461H13.75V17.0695H11ZM11 26.5461C11 27.9539 12.3792 28.948 13.7147 28.5028L12.8451 25.8939C13.2903 25.7455 13.75 26.0769 13.75 26.5461H11ZM13.7147 28.5028L20.5897 26.2111L19.7201 23.6023L12.8451 25.8939L13.7147 28.5028ZM20.5897 26.2111C21.4319 25.9304 22 25.1422 22 24.2545H19.25C19.25 23.9586 19.4394 23.6958 19.7201 23.6023L20.5897 26.2111ZM22 24.2545V17.0695H19.25V24.2545H22ZM26.125 9.05546L20.0555 15.125L22 17.0695L28.0695 11L26.125 9.05546ZM26.125 6.875V9.05546H28.875V6.875H26.125ZM28.0695 11C28.5853 10.4843 28.875 9.7848 28.875 9.05546H26.125L28.0695 11ZM22 17.0695L20.0555 15.125C19.5397 15.6407 19.25 16.3402 19.25 17.0695H22ZM11 17.0695H13.75C13.75 16.3402 13.4603 15.6407 12.9445 15.125L11 17.0695ZM4.125 9.05546C4.125 9.7848 4.41473 10.4843 4.93046 11L6.875 9.05546H4.125ZM26.125 6.875H28.875C28.875 5.35622 27.6438 4.125 26.125 4.125V6.875ZM6.875 4.125C5.35622 4.125 4.125 5.35622 4.125 6.875H6.875V4.125Z" fill="#752905"/>
</svg>
