<svg width="24" height="24" viewBox="0 0 24 24" fill="none" xmlns="http://www.w3.org/2000/svg">
<g clip-path="url(#clip0_72_176)">
<path d="M24.0002 12.2666C24.0002 11.2799 23.9185 10.5599 23.7417 9.81323H12.2451V14.2665H18.9934C18.8574 15.3732 18.1227 17.0399 16.49 18.1599L16.4671 18.3089L20.1021 21.0686L20.354 21.0933C22.6669 18.9999 24.0002 15.9199 24.0002 12.2666Z" fill="#4285F4"/>
<path d="M12.2445 24.0001C15.5505 24.0001 18.326 22.9333 20.3533 21.0934L16.4893 18.1599C15.4553 18.8666 14.0675 19.36 12.2445 19.36C9.00639 19.36 6.25811 17.2667 5.27843 14.3733L5.13483 14.3852L1.35509 17.252L1.30566 17.3866C3.31925 21.3066 7.45531 24.0001 12.2445 24.0001Z" fill="#34A853"/>
<path d="M5.27887 14.3734C5.02037 13.6267 4.87077 12.8267 4.87077 12C4.87077 11.1733 5.02037 10.3733 5.26527 9.62668L5.25842 9.46766L1.43131 6.55493L1.30609 6.6133C0.476197 8.23999 0 10.0667 0 12C0 13.9334 0.476197 15.76 1.30609 17.3867L5.27887 14.3734Z" fill="#FBBC05"/>
<path d="M12.2445 4.63998C14.5438 4.63998 16.0948 5.61331 16.9792 6.4267L20.435 3.12001C18.3126 1.18668 15.5506 0 12.2445 0C7.45534 0 3.31926 2.69332 1.30566 6.6133L5.26485 9.62668C6.25814 6.73335 9.00643 4.63998 12.2445 4.63998Z" fill="#EB4335"/>
</g>
<defs>
<clipPath id="clip0_72_176">
<rect width="24" height="24" fill="white"/>
</clipPath>
</defs>
</svg>
