<svg width="30" height="30" viewBox="0 0 30 30" fill="none" xmlns="http://www.w3.org/2000/svg">
<path fill-rule="evenodd" clip-rule="evenodd" d="M4.0625 12.5372C4.0625 9.16163 7.02393 6.5625 10.5 6.5625C12.2918 6.5625 13.8686 7.40267 15 8.48979C16.1314 7.40267 17.7082 6.5625 19.5 6.5625C22.9761 6.5625 25.9375 9.16163 25.9375 12.5372C25.9375 14.8496 24.9514 16.8831 23.5852 18.6019C22.2214 20.3178 20.4374 21.7741 18.7293 22.9575C18.0769 23.4094 17.4169 23.8264 16.8128 24.134C16.2456 24.4229 15.5934 24.6875 15 24.6875C14.4066 24.6875 13.7544 24.4229 13.1872 24.134C12.5831 23.8264 11.9231 23.4094 11.2707 22.9575C9.56256 21.7741 7.77859 20.3178 6.41478 18.6019C5.0486 16.8831 4.0625 14.8496 4.0625 12.5372Z" fill="white"/>
</svg>
