<svg width="37" height="37" viewBox="0 0 37 37" fill="none" xmlns="http://www.w3.org/2000/svg">
<path d="M7.70801 19.671C7.70801 17.5778 7.70801 16.5312 8.13114 15.6112C8.55426 14.6912 9.34891 14.0101 10.9382 12.6478L12.4799 11.3264C15.3525 8.86418 16.7888 7.63306 18.4997 7.63306C20.2106 7.63306 21.6469 8.86418 24.5195 11.3264L26.0612 12.6478C27.6504 14.0101 28.4451 14.6912 28.8682 15.6112C29.2913 16.5312 29.2913 17.5778 29.2913 19.671V26.2082C29.2913 29.1152 29.2913 30.5687 28.3883 31.4718C27.4852 32.3749 26.0317 32.3749 23.1247 32.3749H13.8747C10.9677 32.3749 9.51418 32.3749 8.6111 31.4718C7.70801 30.5687 7.70801 29.1152 7.70801 26.2082V19.671Z" stroke="black" stroke-width="3.08333"/>
<path d="M22.3538 32.375V24.6667C22.3538 23.8152 21.6636 23.125 20.8122 23.125H16.1872C15.3357 23.125 14.6455 23.8152 14.6455 24.6667V32.375" stroke="black" stroke-width="3.08333" stroke-linecap="round" stroke-linejoin="round"/>
</svg>
