<svg width="19" height="20" viewBox="0 0 19 20" fill="none" xmlns="http://www.w3.org/2000/svg">
<path d="M12.8959 12.1785C13.4554 12.5205 13.75 12.9085 13.75 13.3035C13.75 13.6984 13.4554 14.0864 12.8959 14.4285C12.3364 14.7705 11.5316 15.0545 10.5625 15.252C9.59338 15.4495 8.49405 15.5535 7.375 15.5535C6.25595 15.5535 5.15662 15.4495 4.1875 15.252C3.21838 15.0545 2.41361 14.7705 1.85409 14.4285C1.29457 14.0864 1 13.6984 1 13.3035C1 12.9085 1.29456 12.5205 1.85409 12.1785" stroke="white" stroke-width="0.75" stroke-linecap="round"/>
<path d="M13 6.92847C13 10.692 8.88377 13.2305 7.69367 13.8858C7.49263 13.9965 7.25737 13.9965 7.05633 13.8858C5.86623 13.2305 1.75 10.692 1.75 6.92847C1.75 3.55347 4.47551 1.30347 7.375 1.30347C10.375 1.30347 13 3.55347 13 6.92847Z" stroke="white" stroke-width="0.75"/>
<circle cx="7.375" cy="6.92847" r="2.625" stroke="white" stroke-width="0.75"/>
</svg>
