<svg width="16" height="19" viewBox="0 0 16 19" fill="none" xmlns="http://www.w3.org/2000/svg">
<path fill-rule="evenodd" clip-rule="evenodd" d="M13.2635 8.51489H2.53293C1.68629 8.51489 1 9.26222 1 10.1849V16.0299C1 16.9526 1.68629 17.6999 2.53293 17.6999H13.2635C14.1101 17.6999 14.7964 16.9526 14.7964 16.0299V10.1849C14.7964 9.26222 14.1101 8.51489 13.2635 8.51489Z" stroke="white" stroke-width="2" stroke-linecap="round" stroke-linejoin="round"/>
<path d="M4.06592 8.515V5.175C4.06592 4.06779 4.46969 3.00567 5.18841 2.22244C5.90705 1.44005 6.88184 1 7.89825 1C8.91467 1 9.88946 1.44005 10.6081 2.22244C11.3268 3.00567 11.7306 4.06779 11.7306 5.175V8.515" stroke="white" stroke-width="2" stroke-linecap="round" stroke-linejoin="round"/>
</svg>
