<svg width="16" height="17" viewBox="0 0 16 17" fill="none" xmlns="http://www.w3.org/2000/svg">
<path fill-rule="evenodd" clip-rule="evenodd" d="M15 16V14.3333C15 13.4492 14.6313 12.6017 13.9748 11.9767C13.3185 11.3508 12.4283 11 11.5 11H4.5C3.57171 11 2.68149 11.3508 2.02515 11.9767C1.36873 12.6017 1 13.4492 1 14.3333V16" fill="white"/>
<path d="M15 16V14.3333C15 13.4492 14.6313 12.6017 13.9748 11.9767C13.3185 11.3508 12.4283 11 11.5 11H4.5C3.57171 11 2.68149 11.3508 2.02515 11.9767C1.36873 12.6017 1 13.4492 1 14.3333V16" stroke="white" stroke-width="2" stroke-linecap="round" stroke-linejoin="round"/>
<path fill-rule="evenodd" clip-rule="evenodd" d="M8.00024 7.66667C9.93321 7.66667 11.5002 6.17417 11.5002 4.33333C11.5002 2.4925 9.93321 1 8.00024 1C6.06728 1 4.50024 2.4925 4.50024 4.33333C4.50024 6.17417 6.06728 7.66667 8.00024 7.66667Z" fill="white" stroke="white" stroke-width="2" stroke-linecap="round" stroke-linejoin="round"/>
</svg>
